<svg xmlns="http://www.w3.org/2000/svg" viewBox="0 0 1280 720" role="img" aria-labelledby="title desc">
  <title id="title">Abstract drawing relay image</title>
  <desc id="desc">A handmade abstract illustration with a phone, pencil, speech bubbles, and drawing marks.</desc>
  <defs>
    <linearGradient id="bg" x1="0" x2="1" y1="0" y2="1">
      <stop offset="0" stop-color="#7c3aed"/>
      <stop offset="0.48" stop-color="#ec4899"/>
      <stop offset="1" stop-color="#22d3ee"/>
    </linearGradient>
    <linearGradient id="card" x1="0" x2="1" y1="0" y2="1">
      <stop offset="0" stop-color="#ffffff" stop-opacity="0.96"/>
      <stop offset="1" stop-color="#e0f2fe" stop-opacity="0.94"/>
    </linearGradient>
    <filter id="shadow" x="-20%" y="-20%" width="140%" height="140%">
      <feDropShadow dx="0" dy="18" stdDeviation="18" flood-color="#1e1b4b" flood-opacity="0.35"/>
    </filter>
  </defs>
  <rect width="1280" height="720" fill="url(#bg)"/>
  <circle cx="180" cy="120" r="120" fill="#ffffff" opacity="0.08"/>
  <circle cx="1090" cy="610" r="150" fill="#ffffff" opacity="0.1"/>
  <path d="M0 540 C220 430 350 620 560 500 S870 350 1280 470 L1280 720 L0 720 Z" fill="#0f172a" opacity="0.18"/>
  <g fill="none" stroke="#ffffff" stroke-width="5" opacity="0.22">
    <path d="M95 210 Q155 180 210 220 T330 220"/>
    <path d="M905 120 Q975 80 1045 126 T1185 130"/>
    <path d="M230 620 Q310 570 380 625"/>
  </g>
  <g filter="url(#shadow)">
    <rect x="530" y="135" width="300" height="470" rx="56" fill="#111827"/>
    <rect x="565" y="190" width="230" height="340" rx="30" fill="url(#card)"/>
    <circle cx="680" cy="565" r="22" fill="#38bdf8"/>
    <path d="M632 250 C690 212 760 252 748 318 C736 388 620 375 620 455" fill="none" stroke="#7c3aed" stroke-width="22" stroke-linecap="round"/>
    <path d="M640 462 L752 462" stroke="#ec4899" stroke-width="20" stroke-linecap="round"/>
  </g>
  <g filter="url(#shadow)" transform="rotate(-18 330 370)">
    <rect x="170" y="325" width="330" height="84" rx="42" fill="#fef3c7"/>
    <rect x="170" y="325" width="78" height="84" rx="42" fill="#f472b6"/>
    <path d="M500 325 L585 367 L500 409 Z" fill="#fbbf24"/>
    <path d="M567 358 L610 367 L567 376 Z" fill="#111827"/>
    <rect x="252" y="325" width="180" height="84" fill="#fde68a"/>
  </g>
  <g filter="url(#shadow)">
    <path d="M850 250 h190 a50 50 0 0 1 50 50 v74 a50 50 0 0 1-50 50 h-76 l-72 66 v-66 h-42 a50 50 0 0 1-50-50 v-74 a50 50 0 0 1 50-50z" fill="#ffffff" opacity="0.94"/>
    <path d="M888 328 h146 M888 374 h96" stroke="#2563eb" stroke-width="18" stroke-linecap="round"/>
  </g>
  <g fill="#ffffff" opacity="0.9">
    <circle cx="415" cy="155" r="15"/>
    <circle cx="455" cy="180" r="10"/>
    <circle cx="830" cy="590" r="13"/>
    <circle cx="875" cy="570" r="8"/>
  </g>
</svg>
